<?xml version="1.0" encoding="iso-8859-1"?>
<!-- Generator: Adobe Illustrator 20.0.0, SVG Export Plug-In . SVG Version: 6.00 Build 0)  -->
<svg version="1.1" id="Layer_1" xmlns="http://www.w3.org/2000/svg" xmlns:xlink="http://www.w3.org/1999/xlink" x="0px" y="0px"
	 viewBox="0 0 12.801 12.801" style="enable-background:new 0 0 12.801 12.801;" xml:space="preserve">
<g>
	<path style="fill:#FFFFFF;" d="M10.879,1.922C9.762,0.719,8.16,0,6.398,0C2.879,0,0,2.879,0,6.398c0,3.524,2.879,6.403,6.398,6.403
		c2.961,0,5.442-2.082,6.161-4.801h-1.68c-0.641,1.84-2.399,3.199-4.481,3.199c-2.636,0-4.796-2.16-4.796-4.801
		c0-2.636,2.16-4.796,4.796-4.796c1.364,0,2.481,0.558,3.364,1.437L7.199,5.602h5.602V0L10.879,1.922z M10.879,1.922"/>
</g>
</svg>
